<?xml version="1.0" encoding="UTF-8"?>
<svg id="master-artboard" xmlns="http://www.w3.org/2000/svg" version="1.1" viewBox="0 0 1400 485">
  <defs>
    <style>
      .cls-1 {
        fill: #ea5a4f;
      }

      .cls-1, .cls-2 {
        stroke-width: 0px;
      }

      .cls-2 {
        fill: #3b44ac;
      }
    </style>
  </defs>
  <g>
    <polygon class="cls-1" points="-1 374.8 -.7 188.2 107.9 108.6 203.8 189.1 -1 374.8"/>
    <polygon class="cls-2" points="203.4 375.1 203.7 225 117.6 303.1 203.4 375.1"/>
  </g>
  <path class="cls-2" d="M625.3,229.9h0c-16.5-14.4-37.1-21.7-61.3-21.7-24,0-44.7,7.2-61.4,21.7h0c-9.5,8.2-16.7,17.7-21.5,28.3-4.8,10.6-7.2,22.3-7.2,35.1,0,12.9,2.3,24.8,7.1,35.4,4.7,10.6,11.9,20,21.3,28.1,16.5,14.3,37.3,21.5,61.8,21.4,24.3,0,44.9-7.1,61.4-21.2h0c9.4-8.1,16.5-17.5,21.3-28.2,4.7-10.7,7.1-22.6,7.1-35.6,0-12.8-2.4-24.5-7.1-35.1-4.8-10.6-11.9-20-21.4-28.3ZM620.2,315.7c-2.7,6.6-6.8,12.5-12.2,17.6-5.5,5.1-11.8,8.9-19.1,11.5-7.3,2.6-15.6,3.9-24.9,3.9s-17.7-1.3-25.1-3.9c-7.3-2.6-13.7-6.4-19.2-11.4-5.5-5.1-9.6-10.9-12.3-17.5-2.7-6.7-4.1-14.1-4.1-22.6s1.4-15.4,4.2-22c2.8-6.6,6.9-12.5,12.6-17.7,5.6-5.2,12-9.1,19.3-11.8,7.3-2.6,15.5-4,24.6-4,16.6,0,30.2,4.6,41.2,13.8h0c6.4,5.4,11.2,11.5,14.3,18.4,3.2,6.9,4.8,14.6,4.8,23.3s-1.4,15.8-4.1,22.4ZM502.3,230.1l.2-.2h0l-.2.2ZM455.3,298.4l-.2.2.2-.2c3.6-4.3,6.2-9.3,8-14.9,1.8-5.6,2.6-11.8,2.6-18.6s-1-14.8-3.2-21.1c-2.1-6.3-5.4-11.8-9.8-16.5h0c-4.3-4.7-9.6-8.3-15.6-10.6-6-2.3-12.7-3.5-20.1-3.5h-109.8v160.6h28.6v-58.9h63.5l36.6,58.9h33.2l-36.9-61.2c9.3-2.5,17.1-7.2,22.8-14.2ZM413.9,285.7h-77.9v-43.4h75.8c4.4,0,8.2.5,11.4,1.5,4.7,1.5,7.9,3.8,10.2,7.2,2.2,3.3,3.4,7.9,3.4,13.9,0,3.7-.5,6.8-1.4,9.4-1.4,3.9-3.7,6.5-7.1,8.4-3.4,1.9-8.2,3-14.4,3ZM817.5,322.9c0-6.7-1.1-12.8-3.3-18.2-2.2-5.4-5.5-10-9.9-13.8l-2,2.3,2-2.3c-8.8-7.5-21.8-12.4-39.1-15h0,0c-6.2-.9-18.5-2-37.2-3.4h0c-6.3-.4-11.7-1-16.1-1.8-4.4-.7-8-1.7-10.4-2.7h0c-3.6-1.4-6-3.2-7.6-5.1-1.5-2-2.3-4.1-2.3-6.9,0-2.7.7-4.9,2.2-7,1.5-2,3.8-4,7.2-5.7h0c6.6-3.4,16.8-5.2,30.4-5.2,20.2,0,40.1,5.6,59.8,17.1l2.3,1.3,17.2-21.8-2.5-1.9c-20.3-15.7-45.5-23.5-75.1-23.5-22.1,0-39.5,4.2-52.1,13.1-6.3,4.4-11.1,9.8-14.3,16-3.2,6.2-4.8,13.2-4.8,20.9,0,7.4,1.4,13.9,4.3,19.5,2.9,5.5,7.3,10,13,13.2,4.9,2.8,11.3,5,19.3,6.7,8,1.7,17.6,3,28.9,3.9,12.6.9,22.7,1.8,30.3,2.7,3.8.4,7,.9,9.6,1.3,2.6.4,4.5.8,5.7,1.2,5.1,1.5,8.6,3.7,10.9,6.4,2.2,2.7,3.4,5.9,3.4,10.3,0,3.7-.9,6.8-2.7,9.6-1.8,2.8-4.5,5.3-8.3,7.6-8,4.6-19.8,7.1-35.3,7.1-23.8,0-45.9-7.2-66.7-21.6l-2.6-1.8-15.5,23.4,2,1.8c9.9,9,21.8,15.7,35.6,20.2,13.8,4.4,29.5,6.6,47,6.6,24.2,0,43-4.5,56.5-14,6.7-4.7,11.9-10.5,15.3-17.3,3.4-6.8,5.1-14.6,5.1-23.1ZM1174.4,373.7h28.6v-160.6h-28.6v160.6ZM1392.9,258.2c-4.8-10.6-11.9-20-21.4-28.3h0c-16.5-14.4-37.1-21.7-61.3-21.7-24,0-44.7,7.2-61.4,21.7h0c-9.5,8.2-16.7,17.7-21.5,28.3-4.8,10.6-7.2,22.3-7.2,35.1,0,12.9,2.3,24.8,7.1,35.4,4.7,10.6,11.9,20,21.3,28.1,16.5,14.3,37.3,21.5,61.8,21.4,24.2,0,44.9-7.1,61.4-21.2h0c9.4-8.1,16.5-17.5,21.3-28.2,4.7-10.7,7.1-22.6,7.1-35.6s-2.4-24.5-7.1-35.1ZM1366.4,315.7c-2.7,6.6-6.8,12.5-12.2,17.6h0c-5.5,5.1-11.8,8.9-19.1,11.5-7.3,2.6-15.6,3.9-24.9,3.9s-17.7-1.3-25.1-3.9c-7.4-2.6-13.7-6.4-19.2-11.4-5.5-5.1-9.6-10.9-12.3-17.5-2.7-6.7-4.1-14.1-4.1-22.6s1.4-15.4,4.2-22c2.8-6.6,6.9-12.5,12.6-17.7,5.6-5.2,12-9.1,19.3-11.8,7.3-2.6,15.5-4,24.6-4,16.6,0,30.2,4.6,41.2,13.8h0c6.4,5.4,11.2,11.5,14.3,18.4,3.2,6.9,4.8,14.6,4.8,23.3s-1.4,15.8-4.1,22.4ZM1145.1,298.4l-.2.2.2-.2h0c3.6-4.3,6.2-9.3,8-14.9,1.8-5.6,2.6-11.8,2.6-18.6,0-7.7-1.1-14.8-3.2-21.1-2.1-6.3-5.4-11.8-9.7-16.5h0c-4.4-4.7-9.6-8.3-15.6-10.6-6-2.3-12.7-3.5-20.1-3.5h-109.8v160.6h28.6v-58.9h63.5l36.6,58.9h33.2l-36.9-61.2c9.3-2.5,17-7.2,22.8-14.2ZM1103.6,285.7h-77.9v-43.4h75.8c4.4,0,8.2.5,11.4,1.5,4.7,1.5,7.9,3.8,10.2,7.2,2.2,3.3,3.4,7.9,3.4,13.9s-.5,6.8-1.4,9.4c-1.4,3.9-3.7,6.5-7.1,8.4-3.4,1.9-8.2,3-14.4,3ZM884.3,213.1l-.8,1.8-73.6,158.8h31.3l15.6-34.6h87.2l15.6,34.6h31.3l-74.4-160.6h-32.1ZM870.5,310l30.1-64.5,29.7,64.5h-59.8ZM1142.7,227.2s0,0,0,0l1.4,1.5-1.4-1.5Z"/>
  <path class="cls-2" d="M343.3,132.4c10.2,0,18,3.4,23.6,10.2v.2c.1,0,9-3.7,9-3.7l-.2-.2c-7.5-11.1-18.4-16.7-32.5-16.7s-18,2.9-24.7,8.6c-7.6,6.6-11.5,15.1-11.5,25.4s3.8,19.1,11.3,25.6c6.6,5.7,14.9,8.5,24.8,8.5s13.2-1.2,18.3-3.6c5.1-2.4,9.7-6.3,13.7-11.7l.2-.2-8.4-5.3v.2c-5.8,6.9-13.5,10.4-23.3,10.4s-14.6-2.2-19.3-6.6c-4.8-4.4-7.1-10.1-7.1-17.3s2.4-12.6,7.2-17.1c4.8-4.5,11-6.7,18.7-6.7ZM394.8,165.1h27.9v-10h-27.9v-11.2h40.1v-10h-49.9v54.8h51.7v-10h-41.9v-13.4ZM487.3,167.9c7.8-2.1,11.7-7.7,11.7-16.7,0-5.3-1.5-9.5-4.6-12.7-3-3.2-7.1-4.8-12.2-4.7h-38.7v54.8h9.8v-19.9h23.2l12.4,19.9h11.2l-.2-.4-12.7-20.3ZM480.8,158.6h-27.5v-14.8h27c5.9,0,8.7,2.5,8.7,7.6,0,4.8-2.6,7.1-8.2,7.2ZM538.7,133.8h-11.8l-26.1,54.8h10.8l5.5-11.6h31.6l5.5,11.6h10.8l-.2-.4-26-54.4ZM521.8,166.9l11-23.2,10.9,23.2h-21.9ZM545.3,116.4h-9.7l-8,13.1h6.7l10.9-13.1ZM602.2,164.3l-19.3-30.5h-14.3v54.8h9.8v-44.7l23.8,37.3,23.6-36.6.2,44h9.8v-54.8h-14.4l-19.3,30.5ZM647,188.6h9.8v-54.8h-9.8v54.8ZM681.1,147.3c4-3.5,9.3-5.3,16-5.3s14.2,2.8,19.2,8.6h.1c0,.1,9-3.4,9-3.4l-.2-.3c-7.3-9.9-16.9-14.9-28.7-14.9s-15.6,2.4-21.4,7.3c-6.7,5.6-10.1,12.8-10.1,21.6s3,15.5,8.9,20.9c5.9,5.4,13.6,8.1,23.2,8.1s20.8-4.6,27.8-13.6l.2-.2-8.4-5.1v.2c-5.1,5.8-11.5,8.7-19.3,8.7s-12.2-1.7-16.1-5.2c-4-3.5-5.9-8-5.9-13.8,0-5.6,2-10.1,5.9-13.6ZM789.8,188.2l-26-54.4h-11.9l-26.1,54.8h10.8l5.5-11.6h31.6l5.5,11.6h10.8l-.2-.4ZM747,166.9l11-23.2,10.9,23.2h-21.9Z"/>
</svg>