<svg xmlns="http://www.w3.org/2000/svg" viewBox="0 0 140.4 133.92"><defs><style>.cls-1{fill:#f5e61b;}.cls-2{fill:#fff;}</style></defs><g id="Layer_1" data-name="Layer 1"><circle class="cls-1" cx="67.01" cy="67.26" r="60.37"/></g><g id="Layer_2" data-name="Layer 2"><path class="cls-2" d="M111.67,77.65c.85-12.12.09-13.84-4.5-24.74a3.61,3.61,0,0,0-3.44-2.35q-8.49,0-17,0c-3.55-.08-2.71,3.93-2.79,6.33,0,6.83-.12,13.66.09,20.49H81.81V59.65c.06-2.43-3-1.4-4.54-1.6-1.46-3.7-5.4-6.2-7.79-9.38a7.68,7.68,0,0,0-3.22-2.35c-3.14-.87-6.17-2.36-9.42-2.77-7.18,0-14.34.05-21.52.12-.13-1.05.47-3.06-1.2-3H24.63c-1.8,0-1.13,2.14-1.25,3.31a1,1,0,0,0,1.08,1.19c4.46.35,4.27,5.44,5.95,8.36,2.29,2.53,5,4.65,7.5,7a.56.56,0,0,1,.22.65c-1.49,5.55-2.63,11.26-4.29,16.73-1.48,1.41-.82,4.68,1.38,4.67,1.55,0,3.1,0,4.65,0,.4,11.39,16.65,10.69,16.68,0l.78,0c.12,11.15,16.4,11.15,16.62,0H89c.7,11.92,16.76,10.29,16.69,0,2.41-.37,6.43,1.26,7.09-2A2.57,2.57,0,0,0,111.67,77.65Z"/><path class="cls-1" d="M111.67,77.65a2.57,2.57,0,0,1,1.11,2.91c-.66,3.27-4.68,1.64-7.09,2,.07,10.31-16,11.94-16.69,0H74c-.22,11.13-16.51,11.11-16.62,0l-.78,0c0,10.71-16.28,11.39-16.68,0-1.55-.07-3.1,0-4.65,0-2.2,0-2.86-3.26-1.38-4.67,1.66-5.47,2.8-11.18,4.29-16.73a.56.56,0,0,0-.22-.65c-2.49-2.35-5.21-4.47-7.5-7-1.68-2.91-1.5-8-5.95-8.36A1,1,0,0,1,23.38,44c.11-1.17-.55-3.34,1.25-3.31h9.49c1.67-.07,1.07,2,1.2,3,7.18-.07,14.34-.17,21.52-.12,3.25.41,6.28,1.9,9.42,2.77a7.68,7.68,0,0,1,3.22,2.35c2.39,3.19,6.33,5.68,7.79,9.38,1.57.2,4.6-.82,4.54,1.6V77.38h2.25c-.21-6.83,0-13.66-.09-20.49.07-2.4-.76-6.41,2.79-6.33q8.49,0,17,0a3.61,3.61,0,0,1,3.44,2.35C111.76,63.79,112.52,65.56,111.67,77.65ZM46.47,45v.14C34,45.79,36.41,42,32.59,52.4A1.29,1.29,0,0,0,33,54.11c4.69,4.23,9.38,8.48,14.09,12.69,2.79,2.34,6.47,3.25,9.7,4.84,4.33.88,8.95-.69,13.36-.8,1.89.25,4.22-9.68,5.42-11.69a1.79,1.79,0,0,0-.39-2.08c-2.49-2.67-5-5.36-7.42-8-2.13-2-5.36-2.14-8-3.25C55.53,44.3,50.89,45.24,46.47,45Zm39,19.73c0,3.76,0,7.52,0,11.27a1.16,1.16,0,0,0,1,1.41c1.53-.15,3.3.33,4.71-.25a8.33,8.33,0,0,1,12.37,0c1.58.67,3.57.11,5.28.28,1.21,0,1.54-.33,1.54-1.56-.24-4.12.64-8.45-.64-12.43-6.34-16-1.61-10.38-22.91-11.35-1,0-1.36.38-1.36,1.35Zm-5.14-5.2c-1.07.23-2.86-.51-3.47.42-1.23,3.27-2.48,6.53-3.7,9.8a3.88,3.88,0,0,1-1.47,2.16c1.18,1.49,2.4,2.91,3.48,4.42,1.14,1.81,3.37.81,5.16,1.07Zm-40,17.87c.72-.08,1.34.24,1.85-.33a8.28,8.28,0,0,1,12.25.06c1.25.63,2.89.1,4.28.28,4.37-3.2,8.78-4.7,13.15-.24.57.5,1.49.13,2.23.24-1.14-1.7-2.56-3.24-3.81-4.88a.6.6,0,0,0-.48-.14c-3.16.31-6.32.61-9.47,1-4.76.52-9-2.74-13.25-4.54ZM55,82.86c.17-9-13.48-9.15-13.64-.27C41.46,91.62,54.77,91.63,55,82.86Zm10.57-7c-9,.27-8.91,13.57.13,13.64C74.58,89.29,74.53,76,65.61,75.87Zm24.94,6.8c.12,9,13.46,9,13.62,0C104,73.76,90.77,73.69,90.55,82.67ZM39.47,62,35.62,77.39c1.05-.17,2.29.4,3.07-.37,2.41-3.1,4.83-6.13,7.25-9.23ZM24.89,43.72c4,.53,5.6,4.7,6.26,8.2,1.1-3.18,3-6.27,2.66-9.73H24.89Zm65,35.16H73.07c.47.71.25,2.22,1.25,2.22h9.1c1.8,0,3.61,0,5.41,0C89.66,80.85,89.51,79.6,89.9,78.88Zm14.91,0c.35.76.32,1.75.89,2.24,1.61.12,3.23,0,4.84,0,.61,0,.83-.68.86-1.21C111.67,77.92,106.22,79.16,104.81,78.84Zm-64,0c-1.93.23-4.35-.48-6,.33-.41.61-.29,1.75.54,1.88,1.5,0,3,0,4.49,0C40.48,80.72,40.4,79.59,40.77,78.87Zm14.82,0c.57.75.32,2.39,1.52,2.26.85-.12.67-1.58,1-2.26Z"/><path class="cls-2" d="M46.47,45c4.42.25,9.06-.69,13.32.79,2.61,1.11,5.84,1.26,8,3.25,2.47,2.68,4.93,5.37,7.42,8a1.79,1.79,0,0,1,.39,2.08C74.36,61.2,72.05,71,70.15,70.84c-4.41.11-9,1.68-13.36.8-3.23-1.59-6.91-2.5-9.7-4.84-4.71-4.21-9.4-8.46-14.09-12.69a1.29,1.29,0,0,1-.41-1.71C36.4,42,34,45.79,46.47,45.13Z"/><path class="cls-2" d="M85.45,64.72V53.4c0-1,.38-1.35,1.36-1.35,21.33,1,16.56-4.63,22.91,11.35,1.28,4,.4,8.31.64,12.43,0,1.23-.33,1.56-1.54,1.56-1.71-.17-3.71.38-5.28-.28a8.33,8.33,0,0,0-12.37,0c-1.41.58-3.18.1-4.71.25a1.16,1.16,0,0,1-1-1.41C85.44,72.24,85.45,68.48,85.45,64.72Zm12.42.83c10.29.1,10.76.93,6.26-9-1.1-3.66-9.93-1.67-13.3-2.13-4.06.32-2.14,5.71-2.55,8.43C88.56,67.33,94.91,65,97.87,65.55Z"/><path class="cls-2" d="M80.31,59.52V77.39c-1.79-.26-4,.74-5.16-1.07-1.08-1.51-2.3-2.93-3.48-4.42a3.88,3.88,0,0,0,1.47-2.16c1.22-3.27,2.47-6.53,3.7-9.8C77.45,59,79.23,59.75,80.31,59.52Z"/><path class="cls-2" d="M55,82.86c-.27,8.77-13.58,8.76-13.64-.27C41.56,73.71,55.21,73.83,55,82.86ZM44.1,82.69c0,5.24,8.25,5.63,8.22-.1C52.32,77.41,44.1,77.3,44.1,82.69Z"/><path class="cls-2" d="M65.61,75.87c8.92.13,9,13.42.12,13.64C56.7,89.44,56.57,76.14,65.61,75.87Zm-4.1,6.82c0,5.42,8.19,5.38,8.25,0S61.52,77.32,61.51,82.69Z"/><path class="cls-2" d="M90.55,82.67c.22-9,13.49-8.91,13.62,0C104,91.66,90.67,91.65,90.55,82.67Zm2.69,0c0,5.41,8.2,5.4,8.25,0S93.26,77.34,93.24,82.69Z"/><path class="cls-2" d="M39.47,62l6.47,5.84c-2.42,3.1-4.84,6.13-7.25,9.23-.78.77-2,.2-3.07.37Z"/><path class="cls-2" d="M24.89,43.72V42.19h8.92c.35,3.46-1.56,6.55-2.66,9.73C30.5,48.42,28.91,44.25,24.89,43.72Z"/><path class="cls-2" d="M89.9,78.88c-.38.72-.24,2-1.07,2.2-1.8,0-3.61,0-5.41,0h-9.1c-1,0-.77-1.51-1.25-2.22Z"/><path class="cls-2" d="M104.81,78.84c1.42.33,6.85-.92,6.59,1.06,0,.53-.25,1.18-.86,1.21-1.61,0-3.23.09-4.84,0C105.13,80.59,105.17,79.61,104.81,78.84Z"/><path class="cls-2" d="M40.77,78.87c-.37.72-.29,1.85-1,2.21-1.5,0-3,0-4.49,0-.83-.13-.95-1.27-.54-1.88C36.42,78.39,38.84,79.1,40.77,78.87Z"/><path class="cls-2" d="M55.59,78.87h2.55c-.36.68-.18,2.14-1,2.26C55.91,81.26,56.16,79.62,55.59,78.87Z"/><path class="cls-1" d="M97.87,65.55c-9.09-.13-10.07,1.74-9.59-8.5a2.49,2.49,0,0,1,2.55-2.6c3.38,0,6.76,0,10.13,0a3.34,3.34,0,0,1,3.17,2.12C108.62,66.47,108.18,65.65,97.87,65.55Zm0-1.49c8.89-.42,8.73,2.31,5-6.69-.6-2.67-9.25-1-11.83-1.45-2.37-.12-.9,5.21-1.28,6.83C89.34,65.15,96.24,63.68,97.89,64.06Z"/><path class="cls-2" d="M44.1,82.69c0-5.39,8.22-5.28,8.22-.1C52.35,88.32,44.06,87.93,44.1,82.69Zm4.16-2.63c-3.42-.06-3.5,5.26-.06,5.28S51.71,80.16,48.26,80.06Z"/><path class="cls-2" d="M61.51,82.69c0-5.37,8.22-5.37,8.25,0S61.54,88.11,61.51,82.69Zm1.48,0c0,3.41,5.25,3.43,5.27,0S63,79.28,63,82.69Z"/><path class="cls-2" d="M93.24,82.69c0-5.35,8.19-5.38,8.25,0S93.28,88.1,93.24,82.69Zm1.48,0c-.1,3.38,5.23,3.57,5.27.09S94.77,79.25,94.72,82.64Z"/></g></svg>