<svg xmlns="http://www.w3.org/2000/svg" viewBox="0 0 139.43 133.92"><defs><style>.cls-1{fill:#f5e61b;}.cls-2{fill:#fff;}</style></defs><g id="Layer_1" data-name="Layer 1"><circle class="cls-1" cx="72.54" cy="67.26" r="60.37"/></g><g id="Layer_2" data-name="Layer 2"><path class="cls-2" d="M103.12,83.16c-1.93-4.65-5.44-7.11-10.69-7.43,0-6.5,0-12.85,0-19.21a1.77,1.77,0,0,1,.78-1.38c3.72-1.33,7.48-2.55,11.68-4,.42,3.72.69,6.53,1.07,9.32.12.83.28,2,.85,2.36,3.31,2.24,3.4,5.71,3.77,9.1.13,1.17.18,2.35.34,3.52.63,4.66-.52,6.31-5.19,7.34-.57.12-1.14.27-1.72.37A4.74,4.74,0,0,1,103.12,83.16Z"/><path class="cls-2" d="M34,87.35c1-.42,2-1.34,2.91-1.19,2.18.37,3.47-.74,4.89-2,3.73-3.34,7.54-6.6,11.28-9.93.45-.4,1-1.11,1-1.57-.43-2.53,1.19-3.06,3.07-3.72C68,65.08,78.85,61.15,89.75,57.24c1.18,5,1,5.36-3.47,7-7.67,2.74-15.32,5.53-23,8.19-1.65.56-2.38,1.28-2.32,3.1a4,4,0,0,1-1.22,2.7,11.14,11.14,0,0,0-3.93,8.56c0,2-.87,3.74-3,3.55-6.23-.55-12.44-1.39-18.65-2.11Z"/><path class="cls-2" d="M58.55,65.83c1.5-5.76,3.14-11.49,4.45-17.29a15.37,15.37,0,0,0,0-6.19c-.44-2.29.11-3,2.41-3,6.38.09,12.77.06,19.15,0,1.57,0,2.6.31,2.92,2.08.81,4.53,1.74,9,2.65,13.71-1.19.47-2.25,1-3.35,1.29-2.71.85-6.41-1.28-8.22,2.73V56.83h-4.6l-2.27,5.4-1-.36.93-5.19c-2.28,0-4.48-.09-6.66.06-.53,0-1.24.81-1.44,1.4-.62,1.75-.87,3.64-1.57,5.35a15.91,15.91,0,0,1-2.22,3.1Zm6.12-11h7.47l1.12-5.18C64.67,49,65.57,48.71,64.67,54.85Zm10-11.56c-7.39-.85-7.72-.69-7.9,3.84C73.55,48.18,74,48,74.65,43.29Zm4.59,11.43,1.05-5.07c-5.26-.77-5.64-.42-5.84,5.07Zm8.33.13C86,52.77,88,49,83.94,49.4c-3.34.32-1.68,3.46-2.89,5.45h6.52ZM76.83,43.21c-.19.76-.38,1.41-.52,2.06s-.2,1.24-.29,1.86c5.16.68,5.49.44,5.49-3.92Z"/><path class="cls-2" d="M82.54,89.58H76.85c.7-9.82-3.34-13.72-14.59-13.52.66-.86,1-1.7,1.5-1.89C72.4,71,81.06,67.92,90.2,64.65c0,3.7,0,7,0,10.29a2.12,2.12,0,0,1-1,1.57C83.47,79,81.73,83.61,82.54,89.58Z"/><path class="cls-2" d="M66.19,95.14a8.69,8.69,0,1,1,9-8.54A8.7,8.7,0,0,1,66.19,95.14Zm.17-4.8a3.88,3.88,0,1,0-3.91-3.93A4,4,0,0,0,66.36,90.34Z"/><path class="cls-2" d="M93,95.14a8.69,8.69,0,1,1,8.67-8.87A8.69,8.69,0,0,1,93,95.14Zm3.8-8.71a3.86,3.86,0,0,0-3.94-3.84A4,4,0,0,0,89,86.48a4,4,0,0,0,4,3.86A3.9,3.9,0,0,0,96.84,86.43Z"/></g></svg>