<svg xmlns="http://www.w3.org/2000/svg" viewBox="0 0 135.36 133.92"><defs><style>.cls-1{fill:#f5e61b;}.cls-2{fill:#fff;}</style></defs><g id="Layer_1" data-name="Layer 1"><circle class="cls-1" cx="67.13" cy="67.26" r="60.37"/></g><g id="Layer_2" data-name="Layer 2"><path class="cls-2" d="M38.23,95.14A3.5,3.5,0,0,1,37.79,94c0-3.06,0-6.12,0-9.18,0-1,.31-1.28,1.26-1.28h6.52V75.65H39c-1,0-1.27-.32-1.27-1.27V65.2c0-1,.32-1.29,1.32-1.29H61.18a.79.79,0,0,0,.83-.49q3.85-7.22,7.73-14.4a2.06,2.06,0,0,1,2.48-1.16,3.13,3.13,0,0,1,1.41,1c1.38,1.74,2.68,3.53,4,5.31l.35.42A22.9,22.9,0,0,0,80.09,53a2,2,0,0,0,.47-1.16A15.14,15.14,0,0,0,80.49,50a3.29,3.29,0,0,1,1.3-2.8c.68-.53,1.36-1,2.08-1.59-.28-.38-.55-.73-.8-1.08a1,1,0,0,1,.24-1.5c2.66-2,5.32-4,8-6a2.86,2.86,0,0,1,4.12.6,21.13,21.13,0,0,1,1.13,1.9v1.15a6.12,6.12,0,0,1-1.07,1.64c-2.68,2.09-5.42,4.11-8.15,6.14a1,1,0,0,1-1.45-.21c-.27-.34-.53-.69-.82-1.07a15,15,0,0,1-1.22.89A2.4,2.4,0,0,0,82.51,51a3.29,3.29,0,0,1,0,.45,3.55,3.55,0,0,1-1.6,3.35c-.6.43-1.18.89-1.79,1.35l3.69,4.91c.63.84,1.38,1.62,1.16,2.82h1.46c1,0,1.3.33,1.3,1.32V73.7h.69c1.93,0,3.86,0,5.79,0,1,0,1.35.33,1.35,1.32v9.07c0,1.06-.3,1.38-1.35,1.38H87.39l-.63,0c0,2.83,0,5.58,0,8.33a4.62,4.62,0,0,1-.41,1.31ZM76.39,55.79c-.1-.14-.15-.24-.22-.33l-4-5.32c-.42-.55-.53-.53-.86.09L62.29,67a2.62,2.62,0,0,0-.14.63,2,2,0,0,0,.69.06c3.14-.65,6.27-1.31,9.41-2l9.24-2c.7-.15.73-.25.29-.84-.82-1.09-1.63-2.18-2.45-3.26l-1.75-2.34c-1.34,1-2.62,2-3.91,2.92-.6.45-1.15.39-1.51-.11s-.22-1,.37-1.47Zm2.55,19.9c0,.23,0,.4,0,.57,0,2.22,0,4.44,0,6.66,0,.48.15.6.62.6,4.15,0,8.3,0,12.45,0h.63V75.69ZM61.25,83.48V75.7H47.58c0,.2,0,.36,0,.51,0,2.23,0,4.47,0,6.71,0,.49.16.6.63.6,4.17,0,8.34,0,12.51,0Zm15.66,0V75.69H63.28v7.78ZM71.1,93.26H84.75V85.51H71.1Zm-31.35,0H53.4V85.51H39.75Zm15.69,0H69.08V85.5H55.44ZM84.76,65.89a21.74,21.74,0,0,0-3.79,0c-3.19.57-6.35,1.33-9.53,2-.34.07-.38.23-.37.51v5.24H84.76ZM41.45,69.78m-1.7,0v3.87H53.42V65.91H39.75v1.91m29.34,5.86V68.45c-.21,0-.4,0-.59.09L63,69.71a2.3,2.3,0,0,1-2.6-3.34c.07-.15.13-.3.2-.46H55.46v7.77ZM85.18,44.11l1.72,2.28.68-.5L94,41.08c.73-.55.79-1,.24-1.74L94,39a1,1,0,0,0-1.62-.23c-.75.55-1.5,1.12-2.25,1.68Z"/></g></svg>